<?xml version="1.0" encoding="UTF-8" standalone="no"?>
<!-- Created with Inkscape (http://www.inkscape.org/) -->

<svg
   width="500mm"
   height="600mm"
   viewBox="0 0 499.99998 600"
   version="1.1"
   id="svg1"
   xml:space="preserve"
   sodipodi:docname="chibi.svg"
   inkscape:version="1.4.2 (f4327f4, 2025-05-13)"
   inkscape:export-batch-path="Mila Okta Safitri\Bismillah Project_MICROSTOCK\UNSPLASH PIXABAY WIKIMEDIA CC0"
   inkscape:export-batch-name="chibiiii"
   xmlns:inkscape="http://www.inkscape.org/namespaces/inkscape"
   xmlns:sodipodi="http://sodipodi.sourceforge.net/DTD/sodipodi-0.dtd"
   xmlns="http://www.w3.org/2000/svg"
   xmlns:svg="http://www.w3.org/2000/svg"><sodipodi:namedview
     id="namedview1"
     pagecolor="#ffffff"
     bordercolor="#666666"
     borderopacity="1.0"
     inkscape:showpageshadow="2"
     inkscape:pageopacity="0.0"
     inkscape:pagecheckerboard="0"
     inkscape:deskcolor="#d1d1d1"
     inkscape:document-units="mm"
     inkscape:zoom="0.087245055"
     inkscape:cx="7633.6705"
     inkscape:cy="2659.1765"
     inkscape:window-width="1366"
     inkscape:window-height="705"
     inkscape:window-x="-8"
     inkscape:window-y="-8"
     inkscape:window-maximized="1"
     inkscape:current-layer="layer1"><inkscape:page
       x="0"
       y="0"
       width="499.99997"
       height="600"
       id="page1"
       margin="0"
       bleed="0" /></sodipodi:namedview><defs
     id="defs1" /><g
     inkscape:label="Layer 1"
     inkscape:groupmode="layer"
     id="layer1"
     transform="translate(-4536.5781,122.86349)"><g
       id="g301"
       transform="translate(-339.65631)"><rect
         style="fill:#fffcee;fill-opacity:1;stroke-width:2.5;stroke-linecap:square;paint-order:fill markers stroke"
         id="rect276"
         width="600"
         height="500"
         x="-122.86349"
         y="-5376.2344"
         transform="rotate(90)" /><g
         id="g298"
         transform="translate(-7.3462988)"><ellipse
           style="fill:#f5c1b6;fill-opacity:1;stroke-width:2.5;stroke-linecap:square;paint-order:fill markers stroke"
           id="ellipse276"
           cx="5124.2988"
           cy="436.29581"
           rx="70.242775"
           ry="28.012285" /><g
           id="g273"
           transform="matrix(1.060198,0,0,1.060198,978.00568,19.718341)"
           style="stroke-width:0.94322"><path
             id="path173"
             style="fill:#3d2a1f;fill-opacity:1;stroke-width:0.94322"
             d="m 3940.5107,-76.717459 c -2.9026,3.43e-4 -5.6083,0.179926 -7.9447,0.557588 -27.9502,4.517905 -46.3652,22.705048 -54.2447,53.572958 -5.0061,19.6117511 -5.3219,52.476792 -0.5788,60.231982 l 0.6051,0.98857 -0.4568,1.711524 c -0.2511,0.9412 -0.5836,2.202843 -0.7385,2.803963 -0.3915,1.51937 -0.5633,1.41366 -2.0825,-1.28571 -1.5673,-2.78514 -6.434,-9.814674 -8.4657,-12.228194 -7.3512,-8.73264 -21.6515,-2.830689 -22.7887,9.405111 -0.3647,3.92578 0.9322,6.408849 6.1701,11.815299 1.7847,1.84196 5.2577,5.649689 7.7179,8.461499 l 4.4726,5.11235 -1.2619,0.294555 c -2.2112,0.51638 -2.2129,0.518281 -5.7155,5.877161 -3.4416,5.26573 -8.5867,12.076159 -11.269,14.916919 -10.8101,11.45056 -11.2229,12.157048 -10.9374,18.737874 0.8088,18.61159 12.3011,40.10491 19.6691,36.78535 0.2429,-0.10934 0.6148,-0.2223 0.8274,-0.2496 0.7901,-0.10318 5.1434,-1.97837 6.3091,-2.71766 1.566,-0.99302 1.591,-1.3947 -0.2976,4.78937 -8.3426,27.31332 -12.0258,42.68494 -20.9522,87.43446 -4.3716,21.91653 -5.7628,29.35617 -8.1856,43.77459 l -2.0138,11.98221 0.5948,0.55087 c 0.3268,0.30295 1.1918,1.93343 1.9218,3.62355 4.3871,10.15526 8.8465,17.94019 13.1713,22.99292 0.7889,0.92155 1.2211,1.66622 1.2211,2.10943 0,0.86169 1.6328,9.43764 3.6086,18.98799 0.8341,4.03099 1.8122,8.98802 2.174,11.01586 1.4279,8.00316 3.8943,12.10789 9.585,15.9489 1.6104,1.08711 5.9997,3.38015 6.4699,3.38015 0.3818,0 0.4549,0.18668 1.6774,4.28295 3.0713,10.29197 8.3169,18.93025 12.9057,21.254 6.885,3.48651 11.1898,1.01331 13.2023,-7.58559 1.1154,-4.76454 0.8914,-7.36673 -1.1597,-13.50615 -0.6399,-1.91516 -1.1288,-3.50582 -1.0888,-3.53622 0.041,-0.0295 0.7471,-0.43232 1.5699,-0.89555 2.3731,-1.33615 2.6421,-3.33602 3.0676,-22.82083 l 0.2945,-13.4214 0.5747,-0.14418 c 4.3058,-1.08066 9.418,-0.48614 14.6575,1.70481 l 1.8303,0.76532 0.4496,2.74351 c 0.8844,5.39542 4.4093,21.91333 5.4219,25.40723 1.7176,5.9272 4.4123,8.77706 9.4981,10.04642 0.9901,0.24718 1.8297,0.46497 1.8697,0.48317 0.039,0.0186 -0.3301,1.66329 -0.8191,3.65507 -3.0134,12.2721 -1.1572,20.17227 5.0571,21.52221 v 5.1e-4 c 6.1369,1.33314 11.0962,-2.15771 16.7757,-11.80806 2.4612,-4.18156 3.99,-9.95185 3.99,-15.06058 0,-0.11117 0.3181,-0.28086 0.7069,-0.37776 5.4836,-1.36546 9.1991,-9.45162 11.7817,-25.63926 l 0.4377,-2.7435 2.9874,-1.20716 c 6.5099,-2.63109 9.3717,-4.71161 14.2193,-10.33581 2.5659,-2.97707 2.7262,0.0134 -1.4268,-26.55858 -7.2033,-46.08774 -10.5385,-68.79492 -14.166,-96.43546 -1.0672,-8.1327 -1.9953,-15.09846 -2.0593,-15.47916 l -0.1184,-0.69194 1.665,0.74724 c 8.1322,3.64863 15.339,1.62975 19.9223,-5.58054 2.5319,-3.98285 2.7417,-20.15718 0.5132,-39.55676 l -0.4723,-4.11448 1.0133,-1.46657 c 4.829,-6.98404 5.2986,-16.7119 1.5183,-31.45028 -4.4767,-17.453117 -8.6261,-26.855175 -14.7691,-33.467725 l -1.9369,-2.084628 1.2315,-0.163297 c 2.075,-0.27525 7.3772,-1.648885 9.4857,-2.457215 1.0983,-0.42115 3.3676,-1.114978 5.0421,-1.541508 9.3784,-2.38877 12.6306,-9.204452 15.9644,-33.453772 8.349,-60.7277 -4.0879,-92.814888 -41.1169,-106.079313 -7.5921,-2.719611 -18.0717,-4.332031 -26.7798,-4.331001 z m -52.0702,125.974222 1.6775,1.79989 1.6774,1.800407 v 2.228288 c 0.012,2.12158 -0.039,2.324782 -1.0439,4.243152 h 0.013 c -1.8218,3.47636 -3.2636,3.108515 -2.3879,-0.609265 0.328,-1.40443 0.3769,-2.505313 0.2372,-5.605343 z" /><path
             id="path268"
             style="fill:#d6ad7c;fill-opacity:1;stroke-width:0.94322"
             d="m 3938.0561,-74.860209 c -32.614,1.580159 -55.2235,26.327014 -61.0247,68.1725835 -1.673,12.068779 0.2579,47.8767015 2.2831,42.3240315 1.8185,-4.98733 2.5927,-5.921233 4.3124,-5.202783 2.9052,1.21387 4.5533,5.650762 4.5718,12.306742 v 3.255615 l 2.1213,2.506307 c 2.9255,3.45594 3.0756,3.553436 4.6933,3.047876 3.1497,-0.9844 4.319,-0.438567 11.0577,5.164543 12.5958,10.47318 29.1081,21.123044 33.9752,21.912874 1.0989,0.17829 1.5726,0.695023 1.1276,1.230933 -1.8934,2.28152 -22.8021,-10.875631 -38.5744,-24.273971 -5.1139,-4.34444 -8.7404,-4.194776 -9.0052,0.371554 -0.1307,2.25834 -0.167,2.359534 -1.8536,5.418274 -1.4489,2.62514 -1.6981,3.254357 -1.5787,3.989937 0.1701,1.04411 -0.6664,4.742732 -1.5451,6.835242 -1.5314,3.64695 -1.1457,4.847522 5.2306,16.273942 11.8392,21.215299 20.2041,26.298409 43.34,26.336889 6.2101,0.009 5.3591,0.12153 17.616,-2.29133 15.1897,-2.9901 19.6171,-2.51474 26.8816,2.88716 6.9439,5.16334 9.4762,9.56181 9.495,16.48944 v 4.20491 l 0.7255,-1.55856 c 0.3988,-0.85723 0.9435,-2.62622 1.2108,-3.93051 l 0.02,5.1e-4 c 1.5943,-7.7828 1.2492,-12.45383 -1.7932,-24.2657 -3.1896,-12.3828 -6.6267,-21.379435 -10.2505,-26.828335 -2.4132,-3.62837 -6.2684,-7.759733 -7.2409,-7.759733 -0.1792,0 -0.7487,-0.433872 -1.2635,-0.964282 -4.5111,-4.64706 -12.9319,-5.828851 -28.0629,-3.938261 -7.9618,0.99478 -16.6703,1.051879 -20.9946,0.137459 -0.756,-0.15976 -0.945,-0.811397 -0.3953,-1.361157 0.4244,-0.42435 0.6851,-0.433749 3.6587,-0.137459 5.5179,0.54994 9.9603,0.434123 17.0883,-0.444417 7.5196,-0.92682 15.2579,-1.250198 18.2733,-0.763778 2.5675,0.41418 3.6013,0.05618 7.6461,-2.64635 4.3914,-2.93412 14.0839,-10.753298 16.7571,-13.518038 1.0776,-1.11436 1.7798,-1.327334 2.0505,-0.622184 0.4279,1.11561 -15.5862,14.186855 -20.7827,16.963305 -1.3016,0.69537 -1.4787,0.865735 -1.0537,1.014925 1.5462,0.5428 4.8966,2.243049 6.3071,3.200839 l 1.6206,1.100708 2.0779,-0.33228 c 3.0966,-0.49469 7.6777,-1.658161 10.4356,-2.651001 1.3437,-0.48372 3.5426,-1.144587 4.886,-1.468127 8.195,-1.97317 11.0336,-8.140408 14.382,-31.244088 9.5699,-66.03443 -8.0838,-101.497649 -53.8561,-108.185644 -5.0477,-0.737536 -9.911,-0.984347 -14.5702,-0.758611 z m -44.6169,166.831161 -5e-4,5.17e-4 v 0.0021 0.0047 c -1.7956,5.95266 -11.5566,69.456481 -13.177,85.730161 -1.5903,15.96646 -1.2338,19.03067 2.6768,23.01824 5.0253,5.124 19.6412,10.9624 27.9286,11.15642 l 1.1797,0.0274 -0.4459,-2.37815 c -0.246,-1.3083 -0.5228,-2.92845 -0.617,-3.6003 -0.1701,-1.20509 -0.1855,-1.22169 -1.1204,-1.22318 -1.6468,-0.002 -5.7513,-0.71836 -8.0207,-1.39888 -1.2022,-0.36053 -3.4586,-1.00835 -5.0147,-1.43919 -6.071,-1.68119 -14.9429,-6.8416 -14.3624,-8.35401 0.161,-0.41681 1.1188,-0.52791 1.1188,-0.12971 0,1.36716 8.8265,5.83294 15.044,7.61143 5.7554,1.64637 6.6635,1.85928 9.2388,2.16679 3.081,0.36788 2.8303,0.78292 2.3549,-3.89485 -0.7887,-7.76126 -1.2378,-15.21521 -2.2428,-37.24889 -0.6154,-13.49362 -0.1455,-49.74735 0.6615,-51.0279 0.2825,-0.44697 0.1125,-0.6479 -1.726,-2.03243 -3.3395,-2.51622 -6.9064,-6.89396 -11.3218,-13.896825 -1.1078,-1.756479 -2.049,-3.110968 -2.1472,-3.093351 z m 16.9101,19.437578 -0.1364,1.32653 c -1.9512,19.11264 0.1731,80.84937 3.3465,97.19562 1.9763,10.18539 3.6817,12.0405 11.6732,12.70103 2.4751,0.20441 5.4258,0.47196 6.5572,0.59376 2.9019,0.31241 12.0985,0.0873 15.243,-0.3731 h 0.01 c 10.0454,-1.47088 11.8946,-3.71136 11.8825,-14.39602 0,-9.40719 -0.588,-14.29537 -2.7207,-23.03322 -0.6385,-2.61664 -1.1795,-4.96525 -1.202,-5.21932 -0.03,-0.25422 -0.4499,-0.76854 -0.9498,-1.14308 -10.0602,-7.53874 -12.3921,-13.60749 -10.9921,-28.61118 0.3234,-3.46788 0.3241,-4.98904 0,-11.70109 -0.6157,-12.94553 -0.3466,-15.47231 1.7409,-16.36903 l 0.8062,-0.34623 -0.155,-1.67173 c -0.085,-0.91933 -0.1551,-2.23046 -0.1551,-2.91352 0,-1.21928 -1e-4,-1.23881 -0.709,-1.09244 -7.7364,1.63119 -24.4647,-0.43283 -32.1003,-3.96048 z m 46.8783,100.94629 c 0.5098,-0.005 0.6702,0.18242 0.6702,0.57929 0,0.52397 -0.6416,1.14346 -0.9726,0.93896 -0.1215,-0.076 -0.9091,0.0411 -1.7471,0.26045 -0.838,0.2193 -3.7221,0.86592 -6.4095,1.43661 l -4.886,1.03766 -9.5146,0.0517 c -5.2334,0.0273 -10.6728,-0.027 -12.0872,-0.12093 v 0.001 c -4.6788,-0.31484 -6.6827,-1.01341 -5.7071,-1.98903 0.3389,-0.33896 0.5337,-0.36377 1.0067,-0.12816 1.4114,0.70344 4.6316,0.88633 15.1153,0.85783 l 10.6707,-0.0305 5.0157,-1.02784 c 2.7585,-0.56522 5.8785,-1.24571 6.9334,-1.51257 0.9075,-0.22957 1.5155,-0.3505 1.9121,-0.3545 z" /><path
             style="fill:#a26944;fill-opacity:1;stroke-width:0.94322"
             d="m 3929.2244,58.244144 c -11.9213,-2.21063 -31.9194,-12.90544 -37.868,-20.25171 -3.8896,-4.80336 -4.5566,-7.7072 -3.2691,-14.23472 1.1266,-5.71344 0.719,-11.45773 -1.9411,-27.3475505 -0.824,-4.922428 -0.848,-4.537482 0.5079,-8.1533625 4.9684,-13.251116 7.5113,-17.140204 17.7878,-27.206251 6.7991,-6.659563 10.5665,-9.703364 17.4294,-14.081074 1.7547,-1.119313 3.3608,-2.205522 3.5692,-2.413825 0.506,-0.506047 0.3405,-0.594377 6.1457,3.278922 24.4681,16.325597 32.4402,24.852507 42.6487,45.6182235 7.4977,15.251777 9.4659,23.6098775 9.0837,38.5747475 l -0.091,3.53454 0.9306,-2.02474 c 7.9494,-17.29952 12.3493,-33.91582047 12.0093,-45.356318 l -0.079,-2.700191 h 0.6417 c 1.8388,0 0.3666,14.50775853 -2.5739,25.363079 -2.6403,9.74819 -9.3552,25.90783 -10.6327,25.58728 -0.4465,-0.11209 -1.3719,0.461 -4.1633,2.57762 -21.3728,16.20623 -36.0673,21.84406 -50.1357,19.23533 z"
             id="path214" /><path
             id="path219"
             style="fill:#fbe3d0;fill-opacity:1;stroke-width:0.94322"
             d="m 3926.1163,-53.207267 c -0.8142,-0.04259 -1.4719,0.607672 -3.2541,1.74408 -7.0497,4.495163 -10.2705,7.107811 -17.6403,14.309204 -8.9452,8.740982 -12.1904,13.647666 -16.3318,24.695134 l -1.6397,4.3749263 0.4863,2.696993 c 0.7763,4.31046 2.4829,16.5501987 2.7952,20.0483887 0.3217,3.6055 0.2339,4.834585 -0.7013,9.763745 -0.9947,5.24578 -0.5351,7.735588 2.0852,11.298018 5.9364,8.07055 27.4315,19.478568 39.4963,20.962028 2.3169,0.284865 9.7055,-0.08675 12.2137,-0.614432 10.452,-2.19973 20.0709,-7.367329 34.8175,-18.705319 l 2.9295,-2.252575 -0.042,-6.043559 c -0.1094,-14.80131 -1.9161,-21.5958139 -9.8775,-37.1243489 -9.5272,-18.5831581 -17.5078,-26.9486191 -40.1004,-42.0356771 -3.1897,-2.130076 -4.3135,-3.068338 -5.2363,-3.116606 z m -67.939,80.575961 c -3.7239,-0.07479 -7.7716,1.725695 -9.9152,5.011063 -4.3871,6.72353 -3.7131,10.212227 3.4034,17.603577 1.9299,2.00479 5.4855,5.901886 7.9008,8.659936 6.9928,7.98529 6.9851,7.980654 13.5971,7.777304 1.8387,-0.0565 4.4586,-0.316593 5.8224,-0.577743 6.2459,-1.1962 8.3026,-4.831338 7.6957,-13.604338 -0.1519,-2.17888 -0.2765,-5.535122 -0.2765,-7.457942 0,-6.37389 -0.6542,-9.634057 -2.326,-11.660787 -0.8686,-1.05331 -1.3746,-1.210181 -1.6567,-0.514181 -0.6373,1.57158 -2.5134,7.322512 -2.9611,9.075932 -1.5658,6.13323 -3.0897,6.354725 -6.106,0.888835 -1.9205,-3.47984 -7.382,-11.083319 -9.3065,-12.957349 -1.5195,-1.479491 -3.6371,-2.199432 -5.8714,-2.244307 z m 108.8574,91.227506 c -5.1822,-0.16558 -12.0187,6.40919 -15.0285,15.69362 -0.3188,0.98322 -0.7828,1.33153 -1.4397,1.07952 -0.424,-0.1628 -0.4753,-0.34032 -0.9188,-3.1781 -0.629,-4.02628 -2.3911,-8.22948 -3.4505,-8.22948 -1.6505,0 -1.8467,2.7334 -1.1994,16.71578 l 0.2791,6.04304 1.713,1.58854 c 3.3074,3.06624 7.2429,4.35874 13.485,4.4297 l 2.1916,0.0243 1.3922,-1.2206 c 11.8884,-10.43321 14.5416,-22.54502 6.8197,-31.1335 -1.0714,-1.1917 -2.3927,-1.76645 -3.8437,-1.81281 z" /><path
             id="path220"
             style="fill:#e08847;fill-opacity:1;stroke-width:0.94322"
             d="m 3876.4971,47.866151 c -0.7846,0.02312 -1.9962,0.578791 -3.2241,1.565279 -2.9732,2.38882 -7.021,10.555606 -5.9009,11.905216 0.6303,0.7596 1.1437,0.352224 1.3472,-1.070736 0.5999,-4.16901 4.806,-10.474628 7.3582,-11.031368 1.2295,-0.26816 1.3665,-0.35594 1.2815,-0.81287 -0.074,-0.391477 -0.3912,-0.569393 -0.8619,-0.555521 z m 76.6496,87.935719 c -0.4234,0.0262 -0.7773,0.15457 -1.0253,0.40256 -0.6074,0.60738 -0.099,1.04375 1.2377,1.06505 3.1394,0.0475 7.1101,4.86163 7.1101,8.62014 0,0.4713 0.1389,0.99552 0.309,1.16531 1.9508,1.95066 1.0021,-3.83912 -1.1906,-7.26674 -1.4683,-2.29526 -4.6064,-4.09969 -6.4409,-3.98632 z" /><path
             style="fill:#f9d4b9;fill-opacity:1;stroke-width:0.94322"
             d="m 3989.2906,129.13624 c -0.2308,-1.83908 -1.2012,-4.84934 -1.4755,-4.57526 -0.055,0.0553 0.2733,1.61617 0.7317,3.4687 0.9473,3.83463 1.1178,4.08816 0.7438,1.10656 z"
             id="path218" /><path
             id="path210"
             style="fill:#a47033;fill-opacity:1;stroke-width:0.94322"
             d="m 3887.1864,62.742245 c -0.1905,-0.0014 -0.4077,0.288562 -0.7695,0.857829 -2.6604,4.18678 -14.2481,6.369151 -20.453,3.851961 -4.2454,-1.72226 -5.7138,-1.299306 -7.9784,2.297534 -1.468,2.33115 -6.7455,9.834989 -9.0997,12.938229 -0.644,0.84863 -2.1159,2.526761 -3.2706,3.728971 -11.2409,11.70205 -11.8292,12.969297 -10.2789,22.137671 2.6689,15.78698 8.4346,28.46596 13.5547,29.808 0.6209,0.1628 1.6499,0.45314 2.2862,0.64492 1.4024,0.42255 1.7288,0.4502 1.9058,0.16381 v 0 c 0.075,-0.12119 1.1124,-0.58826 2.3058,-1.03869 2.6388,-0.99594 4.9401,-2.44835 6.6321,-4.18528 4.1384,-4.24895 13.3674,-20.30077 17.1576,-29.8421 2.1059,-5.300726 5.9439,-19.722265 5.9439,-22.333525 0,-0.55689 0.1642,-2.0252 0.3653,-3.26285 0.2004,-1.23765 0.43,-2.970145 0.5095,-3.849895 l 0.1458,-1.599385 -0.6222,0.283187 c -0.3417,0.15582 -0.8023,0.213921 -1.0237,0.129191 -0.592,-0.2272 -0.489,-0.919535 0.1762,-1.187525 2.7618,-1.11193 4.4164,-5.560635 3.1729,-8.530745 -0.2838,-0.677836 -0.4562,-1.009768 -0.6588,-1.011308 z m 0.083,17.765324 c -0.015,0.0014 -0.02,0.02485 -0.013,0.07131 0.243,1.55232 -3.6809,16.939642 -5.766,22.606371 -3.2497,8.83122 -12.7422,26.03586 -16.9261,30.6772 -1.0475,1.16202 -8.6129,26.82768 -12.5833,42.68887 -4.8831,19.50765 -15.1508,70.21287 -19.6354,96.96462 l -1.8588,11.08873 1.1332,2.67736 c 9.9744,23.55274 17.459,31.64621 36.3363,39.29217 9.9615,4.03473 14.0841,4.38671 22.5097,1.92237 6.16,-1.80171 7.4333,-2.10919 10.155,-2.45102 6.208,-0.77973 11.4675,0.95935 23.8461,7.88428 14.5476,8.13829 19.7023,9.509 29.484,7.8419 5.3409,-0.91023 11.701,-2.95645 19.3869,-6.23787 5.2768,-2.25282 8.0452,-4.32981 12.0241,-9.0196 l 1.9487,-2.2965 -0.9416,-6.07147 c -0.5179,-3.33927 -2.0957,-13.47782 -3.5057,-22.52989 -6.9634,-44.70709 -9.6997,-63.49026 -13.9924,-96.03961 l -1.6098,-12.20598 -2.8261,-1.57923 c -1.5544,-0.8688 -3.8436,-2.236 -5.0871,-3.03806 -1.549,-0.99928 -2.2157,-1.31447 -2.1182,-1.00148 4.2055,13.50604 4.9179,32.71852 1.4046,37.88399 -3.1065,4.56747 -14.6269,6.66557 -29.0096,5.2834 -2.4833,-0.23873 -5.6348,-0.53465 -7.0037,-0.65784 -5.0141,-0.45117 -7.4362,-2.54944 -9.3591,-8.10752 -0.3915,-1.13149 -0.7267,-2.08234 -0.7452,-2.11305 -0.03,-0.0307 -1.5557,-0.23354 -3.4163,-0.45113 -6.1701,-0.721 -8.6393,-1.41296 -15.3536,-4.30155 -12.7333,-5.47802 -16.233,-9.52716 -16.1804,-18.72186 0.07,-12.48815 6.5031,-58.69983 12.9563,-93.089407 l 1.5678,-8.355046 -0.5761,-1.024227 c -0.3165,-0.56343 -1.4297,-2.647798 -2.4733,-4.631758 -0.9176,-1.743733 -1.649,-2.958754 -1.7704,-2.958476 -5e-4,10e-7 0,-4.7e-5 0,0 z m 80.7062,31.995981 c -0.8144,-0.007 -1.6406,0.0304 -2.4774,0.11214 -2.4879,0.24299 -16.0786,2.72479 -17.9596,3.27938 -0.9022,0.26606 -0.3341,5.88769 0.7132,7.059 0.7994,0.89434 2.1132,4.05761 2.8096,6.76497 l 0.323,1.25677 1.2356,-2.28565 c 4.8925,-9.05043 12.1206,-14.2119 16.6915,-11.91917 7.2312,3.62724 9.8526,17.57608 4.8932,26.03769 -1.0995,1.87634 -1.1677,1.81572 1.3183,1.1684 3.7177,-0.968 7.1913,-0.6346 7.1913,0.68988 0,0.40172 -0.1366,0.48795 -0.6429,0.40463 -4.4461,-0.73248 -9.0858,0.45645 -11.4437,2.93212 -0.8487,0.89103 -2.1542,2.15306 -2.9017,2.80448 -0.7472,0.65141 -1.319,1.18442 -1.2707,1.18442 0.048,0 1.0644,-0.35677 2.2577,-0.7922 4.3255,-1.57868 7.0753,-1.18353 13.5512,1.94614 3.5145,1.69838 3.9849,2.16154 3.0132,2.96777 -0.3293,0.27336 -0.9337,0.0703 -3.6649,-1.22886 -6.7373,-3.20509 -8.1811,-3.36717 -13.5077,-1.51877 -4.5739,1.58719 -7.9352,1.70822 -14.1924,0.51108 -3.2281,-0.61767 -5.5143,-1.74062 -7.8621,-3.86178 l -0.9389,-0.84801 -0.1638,1.34772 c -1.8995,15.71801 1.3291,21.84888 16.5199,31.36811 10.8139,6.77632 16.82,8.45177 21.6803,6.04769 v 0 c 7.2588,-3.5903 8.5854,-8.1519 7.6889,-26.43973 -0.7615,-15.52753 -1.824,-23.74628 -4.4349,-34.31522 l -1.5885,-6.42906 -1.725,-1.72031 c -4.2796,-4.26691 -9.413,-6.47611 -15.1138,-6.52363 z" /><path
             id="path181"
             style="fill:#d6ad7c;fill-opacity:1;stroke-width:0.94322"
             d="m 3847.3325,316.73501 c 0,1.8e-4 -0.01,0.002 -0.011,0.004 -2e-4,2.5e-4 -8e-4,10e-4 0,0.002 0,0.002 0,0.004 0,0.007 0,0.40469 2.6341,13.72947 3.6008,18.21491 0.5489,2.54589 1.2385,6.07545 1.5328,7.84345 1.3996,8.41073 2.5146,11.05305 6.0637,14.37328 4.3397,4.05951 10.2997,6.80642 16.2171,7.475 2.7858,0.31475 14.1076,0.14138 15.4026,-0.23616 1.6976,-0.49472 4.2431,-1.88257 4.2437,-2.31356 0,-0.21869 0.1764,-2.01752 0.3938,-3.99768 0.3287,-3.00944 1.0443,-28.86383 0.8056,-29.10262 -0.033,-0.0346 -1.7561,0.4471 -3.8246,1.07073 -5.3894,1.6247 -7.7387,2.0205 -11.0044,1.8526 -7.9736,-0.40998 -22.2773,-6.68035 -31.3098,-13.72526 -1.0848,-0.84611 -1.9865,-1.47171 -2.1078,-1.46709 z m 69.6252,15.40474 c -0.3001,0.004 -0.17,0.36749 -0.081,0.91933 2.6583,16.42622 6.1004,29.02649 8.6171,31.54329 3.2308,3.23068 13.3429,4.53171 23.4032,3.01119 12.5906,-1.90298 14.9046,-5.03297 18.3948,-24.88272 0.5482,-3.1177 0.7532,-2.99213 -2.8779,-1.76578 -16.4068,5.54146 -22.4975,4.71754 -41.1267,-5.56297 -4.347,-2.39894 -5.8618,-3.26842 -6.3298,-3.26234 z" /><path
             id="path176"
             style="fill:#fbe3d0;fill-opacity:1;stroke-width:0.94322"
             d="m 3870.2339,365.78421 c -1.0508,-0.0261 2.1904,9.074 5.0297,14.05238 4.5068,7.9025 8.411,10.82039 13.1981,9.86296 2.5663,-0.51325 5.146,-6.48915 5.146,-11.9202 0,-3.89693 -2.3747,-11.78945 -3.4396,-11.43135 -2.1492,0.72283 -16.6283,0.31816 -19.881,-0.55552 -0.019,-0.005 -0.037,-0.008 -0.053,-0.008 z m 84.5767,2.55127 -1.9931,0.47594 c -3.7863,0.90409 -8.7974,1.3253 -14.1128,1.18649 l -4.9196,-0.12868 -0.5478,2.09083 c -4.1235,15.75373 -0.121,24.64591 9.1049,20.22513 v 0 c 5.8393,-2.79838 12.4554,-14.89447 12.4669,-22.79241 z" /><path
             id="path104"
             style="fill:#a05a45;fill-opacity:1;stroke-width:0.94322"
             d="m 3945.2019,-26.425792 c -1.9472,-0.0072 -3.8166,0.257224 -5.1935,0.832507 -1.4825,0.61938 -0.9598,0.726184 3.2955,0.673344 4.1174,-0.05112 6.4466,0.264562 9.2185,1.248503 2.1442,0.761249 2.6248,0.494786 1.1441,-0.634587 -1.7577,-1.340677 -5.2191,-2.107698 -8.4646,-2.119767 z m -42.0992,1.563212 c -3.3622,-0.112888 -9.8667,2.296743 -9.1085,3.523816 0.1506,0.243528 1.1026,-0.04862 3.6194,-1.111043 1.7458,-0.736981 5.5093,-1.329968 7.2187,-1.137399 1.9457,0.219323 0.9424,-0.889373 -1.1023,-1.218013 -0.1931,-0.03104 -0.4032,-0.04983 -0.6273,-0.05736 z" /><path
             id="path43"
             style="fill:#3d2a1f;fill-opacity:1;stroke-width:0.94322"
             d="m 3933.5763,-12.952359 c -0.3274,0.0013 -0.4147,0.410114 -0.261,1.226281 0.2148,1.144773 2.0819,3.6959716 3.3197,4.5361576 0.6229,0.422525 0.8965,0.774749 0.7963,1.028361 -0.143,0.364688 -0.5103,3.1759466 -0.7927,6.06784665 -0.2345,2.40170995 0.9595,2.78021125 1.9694,0.6242513 2.0256,-4.32520005 7.9408,-6.29626965 14.3392,-4.77851965 2.2286,0.52859 2.291,0.6871805 0.4889,1.2552205 -9.5764,3.01862003 -13.6766,17.0274976 -7.6626,26.1813476 1.6216,2.4685 1.8891,2.675972 4.024,3.130042 7.0788,1.50552 19.401,-1.658848 21.2519,-5.457548 1.5317,-3.14394 2.0636,-8.606385 1.1654,-11.9677454 -0.4905,-1.83521 -0.4301,-1.9443445 0.5947,-1.0821045 2.818,2.3714309 1.5556,-3.3692241 -1.8438,-8.38243408 -6.8185,-10.05804702 -21.6167,-15.08341102 -29.5878,-10.05158302 -1.6894,1.0665577 -4.3767,0.418013 -6.6027,-1.593184 -0.5443,-0.492067 -0.9443,-0.737366 -1.1989,-0.736389 z m -48.3371,1.845365 c -0.8602,0.02907 -0.124,2.8276168 1.6945,4.8002238 l 1.0795,1.170988 -0.9498,1.0510986 c -2.2886,2.53344 -3.4684,8.5555915 -2.0883,10.6618815 0.5816,0.88782 1.4055,0.8233772 1.7684,-0.1384928 0.1604,-0.42468 0.494,-0.8361897 0.7431,-0.9151897 0.2484,-0.07888 0.8742,-0.9477215 1.3906,-1.9306315 2.708,-5.15319 8.4553,-6.5022177 14.8286,-3.48040768 1.7877,0.84770997 1.8246,0.88313756 0.9425,0.90433758 -7.7424,0.18889 -13.8068,9.8673942 -12.084,19.2856442 0.7089,3.87494 5.1299,7.026747 11.3792,8.112167 5.9306,1.03002 10.6952,0.04114 12.2628,-2.545065 8.0416,-13.26867 -5.4085,-34.853208 -20.929,-33.58658 -4.8953,0.399529 -6.2736,-0.014747 -8.9286,-2.684074 -0.5024,-0.505043 -0.8687,-0.714038 -1.1095,-0.7059 z" /><path
             id="path264"
             style="fill:#ffffff;fill-opacity:1;stroke-width:0.94322"
             d="m 3962.3151,1.7108283 c -0.6055,-0.02111 -1.1973,0.1215139 -1.7343,0.4733561 -1.9974,1.30863 -1.6953,3.4738293 0.7959,5.7112793 2.7209,2.4433203 3.9629,2.7259143 5.4503,1.2386841 2.4263,-2.42649 -1.242,-7.3093268 -4.5119,-7.4233195 z M 3908.43,5.4108608 c -2.918,0 -3.2483,2.9785656 -0.6299,5.6766562 1.8844,1.94164 3.5793,2.200481 4.902,0.748791 1.9223,-2.1096401 -0.9475,-6.4254472 -4.2721,-6.4254472 z" /><path
             id="path263"
             style="fill:#a37465;fill-opacity:1;stroke-width:0.94322"
             d="m 3965.2767,18.143417 c -0.779,-0.0066 -1.4459,0.178158 -1.586,0.6196 -1.0224,3.22127 -7.1574,4.12984 -9.9761,1.47743 -1.0775,-1.01374 -3.7889,0.301997 -3.7889,1.838647 0,3.19709 2.6535,3.955361 9.5818,2.738851 6.4927,-1.13997 8.6765,-2.486401 8.6765,-5.348511 0,-0.77245 -1.609,-1.315039 -2.9073,-1.326017 z m -66.7412,1.402498 c -0.8507,-0.02144 -1.8347,1.199986 -1.8386,2.87321 v 1.707389 l 1.9931,1.033529 c 3.5476,1.84054 9.8258,2.949706 12.5522,2.217436 v 0 c 1.4767,-0.39664 1.3071,-2.803399 -0.279,-3.941879 l -1.1333,-0.813903 -1.0733,0.710034 c -2.9821,1.97332 -7.9863,0.397023 -9.2444,-2.911967 -0.2273,-0.59771 -0.5864,-0.864105 -0.9731,-0.873849 z" /><path
             id="path39"
             style="fill:#e08847;fill-opacity:1;stroke-width:0.94322"
             d="m 3927.7229,24.414352 c -0.1869,0.0067 -0.4538,0.258807 -0.7576,0.773079 -0.8814,1.491763 -0.2163,2.817507 1.8728,3.734139 h 5e-4 c 2.1934,0.961995 2.538,0.09238 0.4868,-1.228865 l -1.5389,-0.991671 0.1695,-1.130163 c 0.1152,-0.767802 0.01,-1.165102 -0.2331,-1.156519 z m 41.4548,3.171899 c -0.015,7.82e-4 -0.03,0.0036 -0.044,0.0083 -0.4192,0.13723 -0.5319,1.585422 -0.1762,2.249992 h 5e-4 c 0.3621,0.67692 1.1288,0.564425 1.2351,-0.181385 0.098,-0.682256 -0.5883,-2.063069 -1.0005,-2.076876 -0.01,-1.69e-4 -0.01,-2.6e-4 -0.015,0 z m -3.4308,0.75551 c -0.4044,0.01365 -0.6449,0.533935 -0.6449,1.453141 0,0.73899 0.074,0.842013 0.5746,0.771013 0.7517,-0.10674 1.0097,-1.910789 0.3117,-2.178679 -0.086,-0.03287 -0.1665,-0.048 -0.2414,-0.04547 z m -3.7439,0.337964 c -0.2194,-0.0028 -0.4772,0.323088 -0.6946,0.986503 -0.2281,0.69527 -0.2461,1.127899 -0.058,1.478979 v 0 c 0.5714,1.06698 1.3402,0.221209 1.2278,-1.349271 -0.053,-0.737628 -0.2434,-1.113275 -0.4769,-1.116211 z m -65.3666,0.188102 c -0.5448,0.0033 -1.328,0.854092 -1.1436,1.337386 0.1883,0.49087 0.4558,0.514163 0.9876,0.08578 0.6172,-0.49728 0.78,-1.217274 0.3162,-1.395264 -0.05,-0.01914 -0.1038,-0.02825 -0.1602,-0.02791 z m 2.0526,1.264005 c -0.032,4.5e-4 -0.066,0.0046 -0.1033,0.01189 -0.568,0.1119 -0.981,0.816089 -0.7835,1.333769 0.3137,0.81789 1.2057,0.221161 1.2057,-0.806669 0,-0.374929 -0.096,-0.542133 -0.3189,-0.538986 z m 4.1522,0.799435 c -0.025,7.08e-4 -0.05,0.0046 -0.075,0.01292 -0.4131,0.13613 -0.4957,1.094189 -0.1489,1.742529 0.2697,0.50386 0.3372,0.518967 0.6977,0.158647 0.4363,-0.436417 0.032,-1.928486 -0.4739,-1.914095 z" /><path
             style="fill:#622121;fill-opacity:1;stroke-width:0.94322"
             d="m 3935.782,46.728804 c -4.0184,-1.66765 -6.4289,-5.09883 -6.4289,-9.15087 0,-1.79346 0.3418,-2.10381 1.9792,-1.79707 1.4883,0.27882 5.7314,-0.26486 6.977,-0.89395 3.6178,-1.82753 5.5271,-1.90808 6.1433,-0.25908 3.3475,8.96046 -1.1414,15.22562 -8.6706,12.10106 z"
             id="path9" /><path
             style="fill:#ff8080;fill-opacity:1;stroke-width:0.94322"
             d="m 3941.9495,44.942184 c 2.3288,-1.15446 3.0274,-4.60432 1.68,-8.29802 l -0.7053,-1.93369 -0.875,0.66758 c -1.2611,0.96183 -2.9271,1.64082 -4.9913,2.03413 -4.5547,0.86789 -6.2292,4.7916 -2.8817,6.75335 2.9477,1.72742 5.3678,1.96923 7.7733,0.77665 z"
             id="path265" /><path
             id="path260"
             style="fill:#4d3418;fill-opacity:1;stroke-width:0.94322"
             d="m 3862.7692,71.519487 c -0.052,-0.0024 -0.1,-0.002 -0.1452,0.001 -0.4646,0.0311 -0.5746,0.348094 -0.1173,0.89917 0.7342,0.88451 5.7049,2.809731 8.214,3.181201 v -0.0016 c 2.0168,0.29978 6.0348,0.311616 7.8429,0.02429 0.8486,-0.13486 2.0968,-0.27114 2.7735,-0.30334 1.3125,-0.06242 1.8855,-0.465943 1.6242,-1.144633 -0.126,-0.32897 -0.392,-0.386959 -1.2501,-0.273369 -8.4416,1.11674 -12.2686,0.697863 -17.4594,-1.910477 -0.6039,-0.303299 -1.1207,-0.455299 -1.4826,-0.472323 z m 82.5464,82.716403 c -0.6307,-0.009 -0.5667,0.57579 0.6883,1.54047 2.0587,1.58224 6.1507,3.44185 8.9365,4.06125 4.2359,0.94179 12.9868,-1.77949 12.9868,-4.03851 0,-0.80913 -0.6972,-0.80452 -1.7229,0.0119 -4.9326,3.92663 -12.472,3.66519 -18.7772,-0.65164 -0.9232,-0.63207 -1.68,-0.917 -2.1115,-0.92345 z m -69.6128,65.16398 c -0.2085,0.003 -0.3571,0.0566 -0.3571,0.14366 -0.031,1.88272 -0.3469,5.31329 -0.8718,9.46867 -3.4878,27.62892 -4.2575,42.85783 -3.5279,69.94767 0.5279,19.59974 0.7939,23.55447 1.6201,24.0776 v 5.1e-4 c 0.9128,0.57805 0.9509,0.29772 0.5095,-3.76256 -0.8067,-7.41375 -1.2306,-47.13211 -0.6,-56.06117 0.7059,-9.99361 1.855,-21.60533 3.4076,-34.43718 0.9058,-7.48525 0.9141,-9.2389 0.045,-9.36222 -0.08,-0.0113 -0.1558,-0.0158 -0.2253,-0.015 z m 79.036,18.99212 c -0.1088,0.007 -0.2088,0.0955 -0.3044,0.25011 -0.083,0.13422 0.776,4.05396 1.909,8.71007 2.2871,9.39963 3.7121,15.67212 7.3132,32.19183 5.2153,23.92573 10.1814,44.00971 11.0081,44.5208 1.0094,0.62402 0.9661,-0.40369 -0.2005,-4.79093 -3.3125,-12.45418 -5.2827,-20.80119 -10.1363,-42.94415 -6.6582,-30.3752 -8.5371,-38.00194 -9.5891,-37.93773 z m -52.8918,1.83348 c -0.1116,0.007 -0.2508,0.10403 -0.4207,0.27388 -0.9677,0.9672 -1.0474,9.07667 -0.2124,21.55786 1.0865,16.24 5.6261,50.8028 7.5742,57.66832 h 5e-4 c 0.1907,0.67307 0.419,0.96428 0.7545,0.96428 0.7032,0 0.7378,-0.39957 0.2191,-2.55799 -1.1725,-4.87704 -4.3992,-27.61654 -5.9686,-42.05944 -1.3464,-12.385 -1.9809,-24.58872 -1.6474,-31.65595 0.1431,-3.03241 0.098,-4.17089 -0.2775,-4.19096 -0.01,-3.8e-4 -0.014,-4.4e-4 -0.022,0 z" /><path
             id="path271"
             style="fill:#a26944;fill-opacity:1;stroke-width:0.94322"
             d="m 3897.6622,-48.116621 c -2.2177,-0.01856 -9.8636,14.306911 -12.6194,24.210925 -1.1553,4.15756 -2.0225,16.3760989 -1.2283,17.3333089 0.7585,0.913968 1.0531,0.1855462 1.0531,-2.6380818 0.017,-13.3667711 4.139,-25.9947701 11.7347,-35.9497441 0.9462,-1.240135 1.6117,-2.349257 1.5327,-2.554882 -0.1039,-0.270922 -0.2643,-0.399826 -0.4728,-0.401526 z m 88.9134,6.498311 c -0.7594,-0.02171 -0.7558,0.730781 0.056,1.592668 0.8598,0.913021 2.899,3.929672 4.1166,6.090584 1.1824,2.098494 2.1951,4.840206 3.2773,8.872327 0.5315,1.980151 1.019,3.687047 1.079,3.79305 0.1993,0.341942 0.8668,0.205305 1.0248,-0.210323 0.3839,-1.000405 -2.1362,-8.981195 -3.9331,-12.455054 -1.7832,-3.447827 -4.7081,-7.556796 -5.4581,-7.668266 -0.057,-0.0085 -0.1113,-0.01359 -0.1623,-0.01499 z m -14.1913,121.941394 c -4.1603,-0.137269 -11.4868,2.031898 -20.0634,6.142261 -11.5403,5.53089 -21.8127,7.930996 -33.8682,7.915796 -2.1923,-0.0027 -4.449,-0.113127 -5.0147,-0.244947 -0.8003,-0.18626 -1.1105,-0.156404 -1.4051,0.134876 -0.6348,0.6311 0.1959,1.154035 2.2035,1.386995 v -5.16e-4 c 11.1762,1.29667 27.0293,-2.112577 39.9474,-8.591207 9.4151,-4.72193 18.1809,-6.555937 20.6509,-4.320667 0.5667,0.51271 1.3564,-0.0515 1.0801,-0.771529 -0.4027,-1.049625 -1.6395,-1.588662 -3.5305,-1.651062 z" /></g></g></g></g></svg>
